<svg width="26" height="22" viewBox="0 0 26 22" fill="none" xmlns="http://www.w3.org/2000/svg">
<path d="M0 13.7764C0 10.6837 0.958124 7.91906 2.87437 5.48242C4.79062 3.04579 7.33836 1.21832 10.5176 0L11.6935 2.95208C10.8224 3.42066 9.86432 4.17039 8.8191 5.20128C7.81742 6.23216 6.88107 7.40362 6.01005 8.71565L9.21105 11.0351C10.2127 11.7849 10.8878 12.6049 11.2362 13.4952C11.5846 14.3387 11.7588 15.2524 11.7588 16.2364C11.7588 17.8296 11.1926 19.1885 10.0603 20.3131C8.92797 21.4377 7.66499 22 6.27136 22C5.18258 22 4.26801 21.7657 3.52764 21.2971C2.78727 20.8285 2.15578 20.3834 1.63317 19.9617C1.067 19.0245 0.653266 18.017 0.39196 16.9393C0.130653 15.8616 0 14.8072 0 13.7764ZM14.2412 13.7764C14.2412 10.6837 15.1993 7.91906 17.1156 5.48242C19.0318 3.04579 21.5796 1.21832 24.7588 0L25.9347 2.95208C25.0637 3.42066 24.1055 4.17039 23.0603 5.20128C22.0586 6.23216 21.1223 7.40362 20.2513 8.71565L23.4523 11.0351C24.4539 11.7849 25.129 12.6049 25.4774 13.4952C25.8258 14.3387 26 15.2524 26 16.2364C26 17.8296 25.4338 19.1885 24.3015 20.3131C23.1692 21.4377 21.9062 22 20.5126 22C19.4238 22 18.5092 21.7657 17.7688 21.2971C17.0285 20.8285 16.397 20.3834 15.8744 19.9617C15.3082 19.0245 14.8945 18.017 14.6332 16.9393C14.3719 15.8616 14.2412 14.8072 14.2412 13.7764Z" fill="#00C55F"/>
</svg>
