<svg width="38" height="32" viewBox="0 0 38 32" fill="none" xmlns="http://www.w3.org/2000/svg">
<g clip-path="url(#clip0_1_19)">
<path d="M0.5 19.9121C0.5 15.5543 1.86348 11.6587 4.59045 8.22524C6.87018 5.35491 9.77798 3.08446 13.3138 1.41392C14.4889 0.858743 15.8555 1.46496 16.3406 2.67069C16.7956 3.802 16.3172 5.09065 15.3453 5.82711C14.6162 6.37957 13.8512 7.04689 13.0503 7.82908C12.8721 8.01065 12.6954 8.19531 12.5201 8.38307C10.3878 10.6672 11.0692 14.2279 13.608 16.0495C15.0335 17.106 15.9941 18.2614 16.49 19.516C16.9858 20.7045 17.2337 21.992 17.2337 23.3786C17.2337 25.6235 16.428 27.5383 14.8166 29.123C13.2052 30.7077 11.4079 31.5 9.42462 31.5C7.87521 31.5 6.5737 31.1699 5.5201 30.5096C3.67604 29.3539 2.13249 27.7151 1.4324 25.6546C1.28959 25.2342 1.16472 24.8057 1.05779 24.369C0.68593 22.8504 0.5 21.3647 0.5 19.9121ZM20.7663 19.9121C20.7663 15.5543 22.1298 11.6587 24.8568 8.22524C27.1365 5.35491 30.0443 3.08446 33.5802 1.41392C34.7553 0.858743 36.1218 1.46496 36.6069 2.6707C37.062 3.802 36.5835 5.09065 35.6116 5.82711C34.8825 6.37957 34.1175 7.04689 33.3166 7.82908C33.1384 8.01065 32.9617 8.19531 32.7864 8.38306C30.6541 10.6672 31.3355 14.2279 33.8744 16.0495C35.2998 17.106 36.2605 18.2614 36.7563 19.516C37.2521 20.7045 37.5 21.992 37.5 23.3786C37.5 25.6235 36.6943 27.5383 35.0829 29.123C33.4715 30.7077 31.6742 31.5 29.691 31.5C28.1415 31.5 26.84 31.1699 25.7864 30.5096C23.9424 29.3539 22.3988 27.7151 21.6987 25.6546C21.5559 25.2342 21.4311 24.8057 21.3241 24.369C20.9523 22.8504 20.7663 21.3647 20.7663 19.9121Z" fill="#003CFF"/>
</g>
<defs>
<clipPath id="clip0_1_19">
<rect width="37" height="31" fill="white" transform="translate(0.5 0.5)"/>
</clipPath>
</defs>
</svg>
