<?xml version="1.0" encoding="utf-8"?>
<!-- Generator: Adobe Illustrator 27.7.0, SVG Export Plug-In . SVG Version: 6.00 Build 0)  -->
<svg version="1.1" xmlns="http://www.w3.org/2000/svg" xmlns:xlink="http://www.w3.org/1999/xlink" x="0px" y="0px"
	 viewBox="0 0 1805 684" style="enable-background:new 0 0 1805 684;" xml:space="preserve">
<style type="text/css">
	.st0{display:none;}
	.st1{display:inline;}
	.st2{fill:#DDDDDE;}
	.st3{fill:#8C96A0;}
	.st4{fill:#00343D;}
	.st5{fill:#003CFF;}
</style>
<g id="CLEAR_x5F_SPACE" class="st0">
	<g class="st1">
		<path class="st2" d="M566.94,79.12c0-44.51,29.13-79.96,77.77-79.96c49.19,0,77.22,35.17,77.22,79.96
			c0,44.24-28.31,79.69-77.5,79.69C594.14,158.81,566.94,124.46,566.94,79.12z M695,79.12c0-34.07-16.76-57.7-50.29-57.7
			c-33.25,0-50.57,24.46-50.57,57.7c0,33.8,16.21,57.15,50.29,57.15C678.51,136.28,695,112.37,695,79.12z"/>
	</g>
	<g class="st1">
		<path class="st2" d="M79.52,200.13c44.52,0,79.97,29.13,79.97,77.76c0,49.19-35.18,77.21-79.97,77.21
			c-44.25,0-79.7-28.3-79.7-77.49C-0.17,227.33,34.18,200.13,79.52,200.13z M79.52,328.18c34.08,0,57.71-16.76,57.71-50.28
			c0-33.25-24.46-50.56-57.71-50.56c-33.8,0-57.16,16.21-57.16,50.28S46.27,328.18,79.52,328.18z"/>
	</g>
	<g class="st1">
		<path class="st2" d="M1725.2,202.97c44.52,0,79.97,29.13,79.97,77.76c0,49.19-35.18,77.21-79.97,77.21
			c-44.25,0-79.7-28.3-79.7-77.49C1645.51,230.17,1679.86,202.97,1725.2,202.97z M1725.2,331.02c34.08,0,57.71-16.76,57.71-50.28
			c0-33.25-24.46-50.56-57.71-50.56c-33.8,0-57.16,16.21-57.16,50.28S1691.95,331.02,1725.2,331.02z"/>
	</g>
	<g class="st1">
		<path class="st2" d="M676.22,603.48c0-44.51,29.13-79.96,77.77-79.96c49.19,0,77.22,35.17,77.22,79.96
			c0,44.24-28.31,79.69-77.5,79.69C703.43,683.16,676.22,648.82,676.22,603.48z M804.29,603.48c0-34.07-16.76-57.7-50.29-57.7
			c-33.25,0-50.57,24.46-50.57,57.7c0,33.8,16.21,57.15,50.29,57.15S804.29,636.73,804.29,603.48z"/>
	</g>
</g>
<g id="LOGO">
	<g>
		<path class="st3" d="M611.75,478.88c3.96,1.46,7.32,3.89,10.05,7.3c2.73,3.44,4.11,8.04,4.11,13.84c0,7.33-2.35,13.02-7.02,17.08
			c-4.67,4.06-11.13,6.1-19.35,6.1H567.1v-84.54h32.31c7.9,0,13.91,1.89,18.04,5.69c4.11,3.78,6.16,8.89,6.16,15.32
			c0,8.7-3.94,14.91-11.86,18.61V478.88z M579.57,449.06v25.48h18.15c4.2,0,7.45-1.18,9.75-3.5c2.3-2.34,3.44-5.52,3.44-9.54
			c0-3.87-1.14-6.92-3.44-9.13c-2.3-2.21-5.43-3.31-9.39-3.31H579.57z M598.45,512.83c4.52,0,8.07-1.25,10.66-3.76
			c2.58-2.49,3.88-5.78,3.88-9.9c0-4.17-1.31-7.61-3.94-10.25c-2.63-2.66-6.16-4-10.59-4h-18.88v27.91H598.45z"/>
		<path class="st3" d="M647.32,548.55c-2.5,0-5.51-0.43-9.06-1.31v-9.3c2.58,0.56,4.71,0.84,6.42,0.84c6.37,0,10.76-2.9,13.18-8.7
			l2.67-6.88h-3.98l-23.36-60.37h12.83l17.91,47.7h0.95l16.84-47.7h12.83l-25.19,69.07C665.55,543.01,658.21,548.55,647.32,548.55z"
			/>
		<path class="st3" d="M793.02,450.39h-41.03v25.95h35.82v11.24h-35.82v35.62h-12.7v-84.54h53.73V450.39z"/>
		<path class="st3" d="M801.98,476.53h45.02v10.4h-45.02V476.53z"/>
		<path class="st3" d="M917.41,500.75c0,7.65-2.67,13.49-8.03,17.55c-5.38,4.08-12.1,6.1-20.15,6.1c-9.28,0-16.53-2.3-21.79-6.88
			c-5.25-4.6-8.12-10.96-8.59-19.08h12.57c0.58,4.83,2.37,8.53,5.4,11.11c3.01,2.58,7.15,3.87,12.4,3.87c4.52,0,8.18-1.03,11-3.09
			c2.82-2.04,4.24-5.13,4.24-9.24c0-1.93-0.37-3.67-1.1-5.24c-0.71-1.57-1.59-2.86-2.58-3.87c-1.01-1.01-2.37-1.96-4.07-2.84
			c-1.68-0.88-3.16-1.55-4.41-2c-1.25-0.43-2.88-0.99-4.91-1.63l-4.59-1.33c-2.82-0.88-5.34-1.85-7.51-2.88
			c-2.17-1.05-4.39-2.47-6.65-4.23c-2.26-1.78-4-4.02-5.25-6.7c-1.25-2.71-1.87-5.74-1.87-9.13c0-7.15,2.6-12.91,7.86-17.25
			c5.23-4.36,11.86-6.53,19.85-6.53c8.14,0,14.75,2.28,19.85,6.83c5.08,4.53,7.77,10.36,8.09,17.45H904.6
			c-0.5-3.95-2.02-7.15-4.61-9.6s-6.18-3.67-10.76-3.67c-4.43,0-8.05,1.12-10.83,3.37c-2.8,2.26-4.18,5.2-4.18,8.81
			c0,1.7,0.37,3.22,1.08,4.6c0.73,1.38,1.53,2.47,2.37,3.33c0.84,0.84,2.15,1.65,3.94,2.47c1.77,0.79,3.14,1.38,4.11,1.74
			c0.97,0.37,2.5,0.88,4.59,1.53l4,1.07c2.65,0.88,4.99,1.78,7.02,2.66c2,0.88,4.41,2.3,7.19,4.23c2.8,1.91,4.97,4.45,6.54,7.61
			C916.64,493.02,917.41,496.63,917.41,500.75z"/>
		<path class="st3" d="M985.42,492.16c0,0.58-0.06,1.91-0.24,4h-44.76c0.3,5.48,2.05,9.88,5.19,13.21
			c3.14,3.35,7.34,5.03,12.59,5.03c8.14,0,13.18-3.12,15.11-9.3h11.86c-1.29,6.04-4.31,10.76-9.06,14.18
			c-4.76,3.44-10.74,5.13-17.91,5.13c-8.8,0-15.97-2.81-21.55-8.44c-5.55-5.65-8.35-13.08-8.35-22.34c0-9.67,2.82-17.4,8.42-23.25
			c5.6-5.84,12.62-8.77,20.99-8.77c7.92,0,14.51,2.62,19.78,7.86C982.79,474.69,985.42,482.27,985.42,492.16z M957.71,471.64
			c-4.67,0-8.55,1.48-11.6,4.47c-3.08,2.99-4.93,6.77-5.58,11.34h32.92c-0.09-4.66-1.57-8.47-4.48-11.41
			C966.06,473.1,962.32,471.64,957.71,471.64z"/>
		<path class="st3" d="M1026.58,524.41c-9.21,0-16.62-2.92-22.22-8.74c-5.6-5.84-8.42-13.28-8.42-22.28
			c0-9.26,2.88-16.87,8.65-22.84c5.77-5.95,13.05-8.94,21.85-8.94c7.17,0,13.41,1.96,18.69,5.87c5.3,3.91,8.42,9.37,9.39,16.37
			h-12.34c-0.73-3.31-2.52-6.04-5.34-8.23c-2.82-2.17-6.29-3.24-10.4-3.24c-5.32,0-9.71,1.98-13.13,5.97
			c-3.42,3.97-5.15,9-5.15,15.04c0,5.87,1.68,10.72,5.02,14.55c3.36,3.82,7.81,5.74,13.39,5.74c8.05,0,13.35-3.55,15.84-10.64h12.34
			c-1.05,6.53-4.13,11.73-9.26,15.58C1040.38,522.47,1034.07,524.41,1026.58,524.41z"/>
		<path class="st3" d="M1119.99,462.83v60.37h-11.13l-1.23-7.24h-0.84c-4.2,5.63-10.08,8.44-17.67,8.44
			c-6.85,0-12.34-2.11-16.45-6.34c-4.11-4.23-6.18-10.16-6.18-17.81v-37.43h12.36v34.76c0,5.33,1.27,9.32,3.81,12.03
			c2.54,2.69,5.86,4.04,9.97,4.04c4.28,0,7.86-1.44,10.72-4.3c2.86-2.86,4.28-7.09,4.28-12.74v-33.8H1119.99z"/>
		<path class="st3" d="M1135.71,523.2v-60.37h11.13l1.23,8.44h0.84c1.85-3.22,4.07-5.63,6.65-7.24c2.58-1.61,6.22-2.43,10.89-2.43
			h3.88v12.33c-1.94-0.26-3.92-0.37-5.92-0.37c-5.43,0-9.49,1.8-12.23,5.44c-2.76,3.61-4.11,8.21-4.11,13.77v30.42H1135.71z"/>
		<path class="st3" d="M1232.76,492.16c0,0.58-0.06,1.91-0.24,4h-44.76c0.3,5.48,2.05,9.88,5.19,13.21
			c3.14,3.35,7.34,5.03,12.59,5.03c8.14,0,13.18-3.12,15.11-9.3h11.86c-1.29,6.04-4.31,10.76-9.06,14.18
			c-4.76,3.44-10.74,5.13-17.91,5.13c-8.8,0-15.97-2.81-21.55-8.44c-5.55-5.65-8.35-13.08-8.35-22.34c0-9.67,2.82-17.4,8.42-23.25
			c5.6-5.84,12.62-8.77,20.99-8.77c7.92,0,14.51,2.62,19.78,7.86C1230.13,474.69,1232.76,482.27,1232.76,492.16z M1205.05,471.64
			c-4.67,0-8.55,1.48-11.6,4.47c-3.08,2.99-4.93,6.77-5.58,11.34h32.92c-0.09-4.66-1.57-8.47-4.48-11.41
			C1213.4,473.1,1209.66,471.64,1205.05,471.64z"/>
		<g>
			<path class="st4" d="M1179.65,354.07c-2.38,0.85-4.92,1.56-7.61,2.13c-4.44,0.94-9.32,1.42-14.61,1.42
				c-16.07,0-28.49-4.25-35.59-12.74c-7.09-8.49-10.64-21.33-10.64-38.51l0.28-148.44l26.65-0.13v47.06h41.66v25.47h-41.66v72.93
				c0,11.51,2.13,19.53,6.38,24.06c4.25,4.53,10.54,6.8,18.87,6.8c4.16,0,7.8-0.38,10.92-1.13c1.77-0.43,3.59-0.95,5.45-1.56
				L1179.65,354.07z"/>
		</g>
		<g>
			<path class="st4" d="M283.21,278.25c0-44.35,29.08-79.66,77.63-79.66c49.1,0,77.08,35.04,77.08,79.66
				c0,44.08-28.25,79.39-77.36,79.39C310.37,357.64,283.21,323.42,283.21,278.25z M411.04,278.25c0-33.95-16.73-57.49-50.2-57.49
				c-33.19,0-50.47,24.36-50.47,57.49c0,33.67,16.18,56.94,50.2,56.94S411.04,311.37,411.04,278.25z"/>
		</g>
		<g>
			<path class="st4" d="M453.6,278.25c0-44.35,29.08-79.66,77.63-79.66c49.1,0,77.08,35.04,77.08,79.66
				c0,44.08-28.25,79.39-77.36,79.39C480.75,357.64,453.6,323.42,453.6,278.25z M581.43,278.25c0-33.95-16.73-57.49-50.2-57.49
				c-33.19,0-50.47,24.36-50.47,57.49c0,33.67,16.18,56.94,50.2,56.94S581.43,311.37,581.43,278.25z"/>
		</g>
		<g>
			<path class="st4" d="M761.06,278.25c0-44.35,29.08-79.66,77.63-79.66c49.1,0,77.08,35.04,77.08,79.66
				c0,44.08-28.25,79.39-77.36,79.39C788.22,357.64,761.06,323.42,761.06,278.25z M888.89,278.25c0-33.95-16.73-57.49-50.2-57.49
				c-33.19,0-50.47,24.36-50.47,57.49c0,33.67,16.18,56.94,50.2,56.94S888.89,311.37,888.89,278.25z"/>
		</g>
		<g>
			<path class="st4" d="M1081.48,353.96l-27.42,0.08l-0.11-40.19c-10.49,28.53-31.01,43.41-57.29,43.49
				c-40.27,0.11-58.34-26.64-58.45-66.26l-0.26-86.14l27.71-0.08l0.25,79.01c0.08,29.65,10.14,50.43,41.27,50.34
				c27.14-0.07,46.78-22.08,46.67-62.56l-0.21-66.8l27.42-0.08L1081.48,353.96z"/>
		</g>
		<path class="st4" d="M697.98,278.91l70.27-74.05l-35.5,0c0,0-62.04,68.13-74.02,80.82l-0.91-126.92h-27.55v195.21h27.55
			l-0.02-16.11c-0.07-21.22,12.63-28.86,22.29-39.78c7.54,8.88,17.57,20.31,17.57,20.32v-0.01l31.21,35.57h37.03L697.98,278.91z"/>
		<polygon class="st4" points="189.12,158.28 160,158.28 160,354.43 278.36,354.43 278.36,327.64 189.12,327.64 		"/>
		<g>
			<g>
				<path class="st3" d="M1266.87,515.17h-3.08v-18.71h7.11c2.26,0,3.97,0.42,5.12,1.27c1.15,0.84,1.72,2.22,1.72,4.11
					c0,1.69-0.47,2.92-1.4,3.71c-0.94,0.78-2.1,1.25-3.49,1.4l5.25,8.23h-3.49l-4.85-8h-2.9V515.17z M1270.31,504.55
					c0.57,0,1.12-0.02,1.65-0.07c0.53-0.04,0.99-0.17,1.38-0.38c0.39-0.21,0.71-0.51,0.95-0.88c0.24-0.38,0.36-0.91,0.36-1.6
					c0-0.57-0.13-1.02-0.38-1.36c-0.26-0.33-0.58-0.59-0.97-0.77c-0.39-0.18-0.83-0.29-1.31-0.34c-0.48-0.04-0.95-0.07-1.4-0.07
					h-3.71v5.47H1270.31z"/>
			</g>
			<path class="st3" d="M1270.36,490.36c8.54,0,15.49,6.93,15.49,15.45s-6.95,15.45-15.49,15.45s-15.49-6.93-15.49-15.45
				S1261.82,490.36,1270.36,490.36 M1270.36,487.22c-10.29,0-18.63,8.32-18.63,18.59c0,10.27,8.34,18.59,18.63,18.59
				c10.29,0,18.63-8.32,18.63-18.59C1288.98,495.55,1280.64,487.22,1270.36,487.22L1270.36,487.22z"/>
		</g>
		<path class="st5" d="M1577.76,357.51c-21.76,0-39.8-7.21-53.66-21.45c-13.82-14.2-20.82-33.2-20.82-56.49
			c0-24.08,7-43.82,20.82-58.64c13.84-14.83,31.5-22.34,52.47-22.34c19.55,0,36.03,6.69,48.95,19.91
			c12.93,13.22,19.48,32.24,19.48,56.53c0,1.4-0.18,4.4-0.59,9.42l-0.08,1.03h-112.48c0.95,14.22,5.46,25.85,13.38,34.62
			c8.08,8.95,19.02,13.49,32.53,13.49c9.6,0,17.9-2.13,24.64-6.32c6.66-4.13,11.33-10.27,13.84-18.23l0.26-0.77h27.87l-0.28,1.36
			c-3.27,15.09-10.94,26.98-22.79,35.33C1609.5,353.27,1594.85,357.51,1577.76,357.51z M1532.21,263.97h84.88
			c-0.41-12.19-4.26-22.2-11.45-29.76c-7.39-7.77-17.17-11.71-29.08-11.71c-11.93,0-22.06,4.1-30.16,12.18
			C1538.55,242.51,1533.8,252.35,1532.21,263.97z"/>
		<polygon class="st5" points="1244.49,158 1215.37,158 1215.37,354.15 1333.73,354.15 1333.73,327.36 1244.49,327.36 		"/>
		<path class="st5" d="M1467.37,354.77h-27.82l0.1-124.44h-29.73v-25.47h29.73l-0.1-17.98c0-12.1,3.7-21.61,11.01-28.29
			c7.25-6.66,17.24-10.03,29.73-10.03c8.25,0,16.05,1.5,23.14,4.44l0.86,0.36l-5.17,20.92l-1.1-0.35c-4.11-1.31-8.6-1.98-13.36-1.98
			c-11.13,0-16.79,5.17-17.24,15.81l0.12-0.04l-0.06,1.4v15.73h34.11v25.47h-34.11L1467.37,354.77z"/>
		<path class="st5" d="M1373.06,184.18c-4.92,0-9.25-1.76-12.85-5.25c-3.61-3.5-5.43-7.77-5.43-12.71c0-4.93,1.82-9.15,5.43-12.55
			c3.61-3.39,7.94-5.1,12.85-5.1c4.72,0,8.92,1.72,12.4,5.11c3.51,3.38,5.29,7.61,5.29,12.54c0,4.95-1.76,9.22-5.27,12.7
			C1381.96,182.41,1377.79,184.18,1373.06,184.18z"/>
		<g>
			<path class="st5" d="M1386.07,354.15h-27.53l0.1-149.3h27.43V354.15z"/>
		</g>
	</g>
</g>
</svg>
