<svg xmlns="http://www.w3.org/2000/svg" width="1em" height="1em" fill="none" viewBox="12 0 65 55"><g fill="#0A1E3C"><path d="M72.674 28.967c-2.151-1.994-5-3.044-7.984-2.963-5.721.152-10.514 4.724-10.685 10.195-.086 2.858 1.014 5.564 3.105 7.617C59.2 45.869 62 47 64.996 47 71.061 47 76 42.288 76 36.502c0-2.858-1.186-5.529-3.338-7.523l.012-.012Zm-7.666 15.689c-2.323 0-4.511-.875-6.137-2.473-1.626-1.598-2.482-3.698-2.421-5.926.122-4.245 3.851-7.803 8.302-7.92h.256c2.238 0 4.34.817 5.955 2.31 1.675 1.551 2.592 3.627 2.592 5.855 0 4.503-3.84 8.165-8.559 8.165l.012-.011Z"/><path d="m68.771 32.34-5.318 4.725-2.238-1.99c-.526-.472-1.369-.447-1.856.05-.5.498-.474 1.293.053 1.754l3.133 2.785c.25.224.58.336.908.336.33 0 .645-.112.909-.336l6.226-5.521a1.191 1.191 0 0 0 .053-1.754 1.366 1.366 0 0 0-1.856-.05h-.014ZM31 39.5a1 1 0 1 0 0-2 1 1 0 0 0 0 2Zm9-8.5a1 1 0 1 0 0-2 1 1 0 0 0 0 2Z"/><path d="M52.456 29.89h-8.369v-5.673c0-1.412-1.172-2.565-2.607-2.565H23.76V6.354h41.85v15.768a1.19 1.19 0 0 0 1.195 1.177A1.19 1.19 0 0 0 68 22.122V5.177A1.19 1.19 0 0 0 66.804 4H22.565a1.19 1.19 0 0 0-1.195 1.177v16.475h-5.764c-1.434 0-2.606 1.153-2.606 2.565v17.217c0 1.412 1.172 2.565 2.607 2.565h5.763v.87c0 1.778 1.434 3.131 3.347 3.131h7.653c1.913 0 3.347-1.342 3.347-3.13v-.871h5.763c1.435 0 2.607-1.153 2.607-2.566v-2.847h7.174a1.19 1.19 0 0 0 1.195-1.177 1.19 1.19 0 0 0-1.195-1.177h-3.169v-4h4.364a1.19 1.19 0 0 0 1.196-1.178 1.19 1.19 0 0 0-1.196-1.176v.011Zm-19.13 14.992c0 .447-.347.776-.956.776h-7.653c-.61 0-.956-.33-.956-.776V31.16c0-.447.502-.812 1.112-.812h7.341c.61 0 1.112.365 1.112.812v13.722Zm8.37-3.448a.22.22 0 0 1-.216.211h-5.763V31.16c0-1.741-1.566-3.165-3.503-3.165h-7.341c-1.925 0-3.503 1.424-3.503 3.165v10.485h-5.764c-.107 0-.215-.106-.215-.212V24.218a.22.22 0 0 1 .216-.212H41.48c.108 0 .216.106.216.212v17.217Zm4.005-5.202h-1.614v-4h1.614v4Z"/></g></svg>