<svg xmlns="http://www.w3.org/2000/svg" width="1em" height="1em" viewBox="0 0 37.31 39.8"><path d="M34.33 19.16c-.41 0-.81.09-1.17.24-.44-1.12-1.5-1.92-2.76-1.92-.46 0-.91.11-1.29.3-.5-.97-1.49-1.63-2.62-1.63-.34 0-.66.06-.96.16v-3.34c0-1.67-1.33-3.03-2.96-3.03s-2.96 1.36-2.96 3.03v12.02l-2.14-2.48s-.02-.04-.05-.05c-.56-.57-1.31-.88-2.1-.88h-.01c-.8 0-1.53.32-2.09.87-.98 1-1.03 2.48-.15 4.06 1.14 2.05 2.4 3.98 3.49 5.69.81 1.25 1.57 2.43 2.11 3.4.48.85 1.77 3.58 1.78 3.61.16.35.52.58.91.58h12.68c.44 0 .82-.29.96-.71.24-.75 2.31-7.38 2.31-9.93V22.2c0-1.67-1.33-3.03-2.96-3.03h-.02Zm-.96 3.03c0-.54.44-1 .96-1s.96.44.96 1v6.95c0 1.71-1.28 6.27-2 8.61H21.97c-.41-.88-1.19-2.51-1.58-3.17-.58-1.02-1.36-2.22-2.18-3.49-1.08-1.68-2.31-3.58-3.43-5.57-.29-.52-.56-1.23-.17-1.6.17-.18.42-.28.67-.28s.49.1.67.28l3.87 4.5c.27.32.72.43 1.11.28.39-.15.65-.53.65-.96V13c0-.54.44-1 .96-1s.96.44.96 1v9.52a1.01 1.01 0 1 0 2.02 0v-3.31c0-.54.44-1 .96-1s.96.44.96 1v4.64a1.01 1.01 0 1 0 2.02 0v-3.31c0-.54.44-1 .96-1s.96.44.96 1v4.64a1.01 1.01 0 1 0 2.02 0v-2.97h.01ZM8.71 17.41c-2.37 0-4.58-.94-6.24-2.64S-.06 10.83 0 8.46C.14 3.92 3.93.14 8.46 0c2.38-.07 4.61.8 6.32 2.46a8.635 8.635 0 0 1 2.64 6.24c0 4.8-3.91 8.7-8.7 8.7Zm0-15.47h-.2c-3.52.1-6.47 3.05-6.57 6.57a6.73 6.73 0 0 0 1.91 4.91 6.697 6.697 0 0 0 4.86 2.05c3.73 0 6.77-3.04 6.77-6.77 0-1.84-.73-3.57-2.05-4.86a6.708 6.708 0 0 0-4.71-1.91Z"/><path d="M5.97 12.41c-.25 0-.49-.1-.69-.28a.954.954 0 0 1 0-1.36l5.47-5.47c.38-.38.99-.38 1.36 0 .38.38.38.99 0 1.36l-5.47 5.47c-.19.19-.44.28-.69.28Z"/><path d="M11.61 12.58c-.25 0-.49-.1-.69-.28l-5.8-5.8a.954.954 0 0 1 0-1.36c.38-.38.99-.38 1.36 0l5.8 5.8c.38.38.38.99 0 1.36-.19.19-.44.28-.69.28Z"/></svg>