<svg xmlns="http://www.w3.org/2000/svg" width="1em" height="1em" viewBox="0 0 40.58 37"><path d="M27.56 20.34a.938.938 0 0 0-1.1.76l-.44 2.32-15.14 1.43-1.96-8.98h10.8c.52 0 .95-.42.95-.95s-.42-.95-.95-.95H8.51l-.52-2.41a.935.935 0 0 0-.93-.74H.95c-.52 0-.95.42-.95.95s.42.95.95.95h5.37l.5 2.28c0 .09.03.18.06.25l2.35 10.82s.01.03.02.04l-1.26 6.01c-.98.35-1.72 1.28-1.72 2.37 0 1.36 1.15 2.51 2.52 2.51s2.51-1.15 2.51-2.51c0-.21-.03-.42-.08-.62h11.6c-.05.2-.09.4-.09.62 0 1.36 1.15 2.51 2.52 2.51s2.51-1.15 2.51-2.51-1.1-2.51-2.51-2.51c-.27 0-.54.06-.78.15v-.15H9.95l1.1-5.24 15.88-1.5c.42-.04.76-.35.84-.77l.56-3.02a.943.943 0 0 0-.76-1.1ZM9.39 34.48c0 .31-.32.62-.62.62s-.62-.32-.62-.62.32-.62.62-.62.62.21.62.62Zm15.83-.62c.3 0 .62.21.62.62 0 .31-.32.62-.62.62s-.62-.32-.62-.62.32-.62.62-.62Z"/><path d="M30.54 20.09c-5.54 0-10.04-4.5-10.04-10.04S25 0 30.54 0s10.04 4.5 10.04 10.04-4.5 10.04-10.04 10.04Zm0-18.2c-4.5 0-8.15 3.66-8.15 8.15s3.66 8.15 8.15 8.15 8.15-3.66 8.15-8.15-3.66-8.15-8.15-8.15Z"/><path d="M28.52 14.63c-.27 0-.53-.12-.71-.33l-2.53-2.91c-.34-.4-.3-.99.09-1.34a.96.96 0 0 1 1.34.09l1.83 2.11 5.85-6.48a.949.949 0 1 1 1.41 1.27l-6.57 7.28c-.18.2-.44.32-.7.32h-.01Z"/></svg>